<svg xmlns="http://www.w3.org/2000/svg">
  <symbol id="icon-filled-dashboard" viewBox="0 -960 960 960">
    <path d="M224.62-160q-27.62 0-46.12-18.5Q160-197 160-224.62v-510.76q0-27.62 18.5-46.12Q197-800 224.62-800H460v640H224.62ZM500-160v-320h300v255.38q0 27.62-18.5 46.12Q763-160 735.38-160H500Zm0-360v-280h235.38q27.62 0 46.12 18.5Q800-763 800-735.38V-520H500Z"/>
  </symbol>
  <symbol id="icon-filled-store" viewBox="0 -960 960 960">
    <path d="M820.23-524.15v319.53q0 27.62-18.5 46.12-18.5 18.5-46.11 18.5H204.85q-27.62 0-46.12-18.5-18.5-18.5-18.5-46.12v-321.07q-25.31-18.69-37.04-49t-.5-64.69l38.93-128.31q8-24.46 25.8-38.39Q185.23-820 211.46-820h536q26.23 0 43.92 13.04 17.7 13.04 25.93 37.73l40.46 129.85q11.23 34.38-.5 65.23-11.73 30.84-37.04 50Zm-252-15.85q38.54 0 57.54-21.58 19-21.57 16-44.57L615.15-780H500.23v168q0 29.46 20.15 50.73Q540.54-540 568.23-540Zm-180 0q32.23 0 52.12-21.27 19.88-21.27 19.88-50.73v-168H345.31l-26.62 176.92q-2.46 18.62 16.27 40.85T388.23-540Zm-178 0q26.46 0 44.96-18t23.04-44.92L303.31-780h-91.85q-13.08 0-20.77 5.77-7.69 5.77-11.54 17.31l-36.92 126.3q-9.85 31.54 8.42 61.08T210.23-540Zm540 0q35.92 0 57.39-28 21.46-28 10.61-62.62l-38.92-127.84Q775.46-770 767.77-775q-7.69-5-20.77-5h-89.85l25.08 177.08Q686.77-576 705.27-558t44.96 18Z"/>
  </symbol>
  <symbol id="icon-filled-account-balance" viewBox="0 -960 960 960">
    <path d="M260-280v-320h40v320h-40Zm200 0v-320h40v320h-40ZM141.54-160v-40h676.92v40H141.54ZM660-280v-320h40v320h-40ZM141.54-680v-33.85L480-875.38l338.46 161.53V-680H141.54Z"/>
  </symbol>
  <symbol id="icon-filled-stack" viewBox="0 -960 960 960">
    <path d="M480-424.62 80.77-632.31 480-840l400 207.69-400 207.69Zm0 152.31L103.77-467.77l41.69-22.92L480-317.92l335.31-172.77L857-467.77 480-272.31ZM480-120 103.77-315.46l41.69-22.92L480-165.62l335.31-172.76L857-315.46 480-120Z"/>
  </symbol>
  <symbol id="icon-corporation" viewBox="0 -960 960 960">
    <path d="M109.23-153.85v-680h360v160h381.54v520H109.23Zm40-40h120v-120h-120v120Zm0-160h120v-120h-120v120Zm0-160h120v-120h-120v120Zm0-160h120v-120h-120v120Zm160 480h120v-120h-120v120Zm0-160h120v-120h-120v120Zm0-160h120v-120h-120v120Zm0-160h120v-120h-120v120Zm160 480h341.54v-440H469.23v120h95.39v40h-95.39v120h95.39v40h-95.39v120Zm190.77-280v-40h40v40h-40Zm0 160v-40h40v40h-40Z"/>
  </symbol>
  <symbol id="icon-filled-security" viewBox="0 -960 960 960">
    <path d="M480-121.54q-120.54-35.77-200.27-146.04Q200-377.85 200-516v-216.31l280-104.61 280 104.61V-516q0 138.15-79.73 248.42Q600.54-157.31 480-121.54Zm0-42.46q97-30 162-118.5T718-480H480v-314.23L240-705v206.23q0 7.77 2 18.77h238v316Z"/>
  </symbol>
  <symbol id="icon-menu" viewBox="0 -960 960 960">
    <path d="M160-269.23v-40h640v40H160ZM160-460v-40h640v40H160Zm0-190.77v-40h640v40H160Z"/>
  </symbol>
</svg>
