<svg xmlns="http://www.w3.org/2000/svg">
  <symbol id="icon-filled-dashboard" viewBox="0 -960 960 960">
    <path d="M224.62-160q-27.62 0-46.12-18.5Q160-197 160-224.62v-510.76q0-27.62 18.5-46.12Q197-800 224.62-800H460v640H224.62ZM500-160v-320h300v255.38q0 27.62-18.5 46.12Q763-160 735.38-160H500Zm0-360v-280h235.38q27.62 0 46.12 18.5Q800-763 800-735.38V-520H500Z"/>
  </symbol>
  <symbol id="icon-filled-store" viewBox="0 -960 960 960">
    <path d="M820.23-524.15v319.53q0 27.62-18.5 46.12-18.5 18.5-46.11 18.5H204.85q-27.62 0-46.12-18.5-18.5-18.5-18.5-46.12v-321.07q-25.31-18.69-37.04-49t-.5-64.69l38.93-128.31q8-24.46 25.8-38.39Q185.23-820 211.46-820h536q26.23 0 43.92 13.04 17.7 13.04 25.93 37.73l40.46 129.85q11.23 34.38-.5 65.23-11.73 30.84-37.04 50Zm-252-15.85q38.54 0 57.54-21.58 19-21.57 16-44.57L615.15-780H500.23v168q0 29.46 20.15 50.73Q540.54-540 568.23-540Zm-180 0q32.23 0 52.12-21.27 19.88-21.27 19.88-50.73v-168H345.31l-26.62 176.92q-2.46 18.62 16.27 40.85T388.23-540Zm-178 0q26.46 0 44.96-18t23.04-44.92L303.31-780h-91.85q-13.08 0-20.77 5.77-7.69 5.77-11.54 17.31l-36.92 126.3q-9.85 31.54 8.42 61.08T210.23-540Zm540 0q35.92 0 57.39-28 21.46-28 10.61-62.62l-38.92-127.84Q775.46-770 767.77-775q-7.69-5-20.77-5h-89.85l25.08 177.08Q686.77-576 705.27-558t44.96 18Z"/>
  </symbol>
  <symbol id="icon-filled-account-balance" viewBox="0 -960 960 960">
    <path d="M260-280v-320h40v320h-40Zm200 0v-320h40v320h-40ZM141.54-160v-40h676.92v40H141.54ZM660-280v-320h40v320h-40ZM141.54-680v-33.85L480-875.38l338.46 161.53V-680H141.54Z"/>
  </symbol>
  <symbol id="icon-filled-stack" viewBox="0 -960 960 960">
    <path d="M480-424.62 80.77-632.31 480-840l400 207.69-400 207.69Zm0 152.31L103.77-467.77l41.69-22.92L480-317.92l335.31-172.77L857-467.77 480-272.31ZM480-120 103.77-315.46l41.69-22.92L480-165.62l335.31-172.76L857-315.46 480-120Z"/>
  </symbol>
  <symbol id="icon-corporation" viewBox="0 -960 960 960">
    <path d="M109.23-153.85v-680h360v160h381.54v520H109.23Zm40-40h120v-120h-120v120Zm0-160h120v-120h-120v120Zm0-160h120v-120h-120v120Zm0-160h120v-120h-120v120Zm160 480h120v-120h-120v120Zm0-160h120v-120h-120v120Zm0-160h120v-120h-120v120Zm0-160h120v-120h-120v120Zm160 480h341.54v-440H469.23v120h95.39v40h-95.39v120h95.39v40h-95.39v120Zm190.77-280v-40h40v40h-40Zm0 160v-40h40v40h-40Z"/>
  </symbol>
  <symbol id="icon-filled-security" viewBox="0 -960 960 960">
    <path d="M480-121.54q-120.54-35.77-200.27-146.04Q200-377.85 200-516v-216.31l280-104.61 280 104.61V-516q0 138.15-79.73 248.42Q600.54-157.31 480-121.54Zm0-42.46q97-30 162-118.5T718-480H480v-314.23L240-705v206.23q0 7.77 2 18.77h238v316Z"/>
  </symbol>
  <symbol id="icon-menu" viewBox="0 -960 960 960">
    <path d="M160-269.23v-40h640v40H160ZM160-460v-40h640v40H160Zm0-190.77v-40h640v40H160Z"/>
  </symbol>
  <symbol id="icon-outlined-language" viewBox="0 -960 960 960">
    <path d="M340-148.42q-65.69-28.43-114.42-77.16-48.73-48.73-77.16-114.42Q120-405.69 120-480.12q0-74.42 28.42-140 28.43-65.57 77.16-114.3 48.73-48.73 114.42-77.16Q405.69-840 480.12-840q74.42 0 140 28.42 65.57 28.43 114.3 77.16 48.73 48.73 77.16 114.3 28.42 65.58 28.42 140 0 74.43-28.42 140.12-28.43 65.69-77.16 114.42-48.73 48.73-114.3 77.16-65.58 28.42-140 28.42-74.43 0-140.12-28.42Zm140-11.27q35.23-45.23 58.08-88.85 22.84-43.61 37.15-97.61H384.77q15.85 57.07 37.92 100.69 22.08 43.61 57.31 85.77Zm-50.92-6q-28-33-51.12-81.58-23.11-48.58-34.42-98.88H190.15q34.39 74.61 97.5 122.38 63.12 47.77 141.43 58.08Zm101.84 0q78.31-10.31 141.43-58.08 63.11-47.77 97.5-122.38H616.46q-15.15 51.07-38.27 99.65-23.11 48.58-47.27 80.81ZM173.85-386.15h161.38q-4.54-24.62-6.42-47.97-1.89-23.34-1.89-45.88 0-22.54 1.89-45.88 1.88-23.35 6.42-47.97H173.85q-6.54 20.77-10.2 45.27Q160-504.08 160-480t3.65 48.58q3.66 24.5 10.2 45.27Zm201.38 0h209.54q4.54-24.62 6.42-47.2 1.89-22.57 1.89-46.65t-1.89-46.65q-1.88-22.58-6.42-47.2H375.23q-4.54 24.62-6.42 47.2-1.89 22.57-1.89 46.65t1.89 46.65q1.88 22.58 6.42 47.2Zm249.54 0h161.38q6.54-20.77 10.2-45.27Q800-455.92 800-480t-3.65-48.58q-3.66-24.5-10.2-45.27H624.77q4.54 24.62 6.42 47.97 1.89 23.34 1.89 45.88 0 22.54-1.89 45.88-1.88 23.35-6.42 47.97Zm-8.31-227.7h153.39Q734.69-690 673.5-736.23q-61.19-46.23-142.58-58.85 28 36.85 50.35 84.27 22.35 47.43 35.19 96.96Zm-231.69 0h190.46q-15.85-56.3-39.08-101.84-23.23-45.54-56.15-84.62-32.92 39.08-56.15 84.62-23.23 45.54-39.08 101.84Zm-194.62 0h153.39q12.84-49.53 35.19-96.96 22.35-47.42 50.35-84.27-82.16 12.62-142.96 59.23-60.81 46.62-95.97 122Z"/>
  </symbol>
  <symbol id="icon-outlined-pencil" viewBox="0 -960 960 960">
    <path d="M224.62-160q-27.62 0-46.12-18.5Q160-197 160-224.62v-510.76q0-27.62 18.5-46.12Q197-800 224.62-800h335.46l-40 40H224.62q-9.24 0-16.93 7.69-7.69 7.69-7.69 16.93v510.76q0 9.24 7.69 16.93 7.69 7.69 16.93 7.69h510.76q9.24 0 16.93-7.69 7.69-7.69 7.69-16.93v-299.53l40-40v339.53q0 27.62-18.5 46.12Q763-160 735.38-160H224.62ZM480-480Zm-80 80v-104.62l357.77-357.76q6.61-6.62 13.92-9.16t15.39-2.54q7.54 0 14.73 2.54t13.04 8.39L859.31-820q6.38 6.62 9.69 14.58 3.31 7.96 3.31 16.04 0 8.07-2.43 15.26-2.42 7.2-9.03 13.81L500.77-400H400Zm432.54-388.62-44.46-46.76 44.46 46.76ZM440-440h43.69l266.62-266.62-21.85-21.84-24.38-23.39L440-487.77V-440Zm288.46-288.46-24.38-23.39 24.38 23.39 21.85 21.84-21.85-21.84Z"/>
  </symbol>
  <symbol id="icon-outlined-trash" viewBox="0 -960 960 960">
    <path d="M304.62-160q-26.85 0-45.74-18.88Q240-197.77 240-224.62V-720h-40v-40h160v-30.77h240V-760h160v40h-40v495.38q0 27.62-18.5 46.12Q683-160 655.38-160H304.62ZM680-720H280v495.38q0 10.77 6.92 17.7 6.93 6.92 17.7 6.92h350.76q9.24 0 16.93-7.69 7.69-7.69 7.69-16.93V-720ZM392.31-280h40v-360h-40v360Zm135.38 0h40v-360h-40v360ZM280-720v520-520Z"/>
  </symbol>
  <symbol id="icon-add" viewBox="0 -960 960 960">
    <path d="M460-460H240v-40h220v-220h40v220h220v40H500v220h-40v-220Z"/>
  </symbol>
  <symbol id="icon-outlined-grid" viewBox="0 -960 960 960">
    <path d="M600.08-500h159.15v-155.38q0-10.77-6.92-17.7-6.93-6.92-17.69-6.92H600.08v180Zm-199.39 0h159.16v-180H400.69v180Zm-199.15 0h159.15v-180H226.15q-10.77 0-17.69 6.92-6.92 6.93-6.92 17.7V-500Zm24.61 220h134.54v-180H201.54v155.38q0 10.77 6.92 17.7 6.92 6.92 17.69 6.92Zm174.54 0h159.16v-180H400.69v180Zm199.39 0h134.54q10.76 0 17.69-6.92 6.92-6.93 6.92-17.7V-460H600.08v180Zm-438.54-24.62v-350.76q0-26.66 18.98-45.64T226.15-720h508.47q26.65 0 45.63 18.98 18.98 18.98 18.98 45.64v350.76q0 26.66-18.98 45.64T734.62-240H226.15q-26.65 0-45.63-18.98-18.98-18.98-18.98-45.64Z"/>
  </symbol>
  <symbol id="icon-outlined-list" viewBox="0 -960 960 960">
    <path d="M340-240h435.38q9.24 0 16.93-7.69 7.69-7.69 7.69-16.93V-367H340v127ZM160-593h140v-127H184.62q-9.24 0-16.93 7.69-7.69 7.69-7.69 16.93V-593Zm0 187h140v-147H160v147Zm24.62 166H300v-127H160v102.38q0 9.24 7.69 16.93 7.69 7.69 16.93 7.69ZM340-406h460v-147H340v147Zm0-187h460v-102.38q0-9.24-7.69-16.93-7.69-7.69-16.93-7.69H340v127ZM184.62-200q-27.62 0-46.12-18.5Q120-237 120-264.62v-430.76q0-27.62 18.5-46.12Q157-760 184.62-760h590.76q27.62 0 46.12 18.5Q840-723 840-695.38v430.76q0 27.62-18.5 46.12Q803-200 775.38-200H184.62Z"/>
  </symbol>
  <symbol id="icon-fill-support" viewBox="0 -960 960 960">
    <path d="M503.5-279.93q9.12-9.16 9.12-22.42 0-13.27-9.16-22.38-9.16-9.12-22.43-9.12-13.26 0-22.38 9.16-9.11 9.16-9.11 22.43 0 13.26 9.16 22.38 9.16 9.11 22.42 9.11 13.26 0 22.38-9.16Zm-43.04-123.3h38.62q1.54-26.08 9.8-42.39 8.27-16.3 34.04-41.61 26.77-26.77 39.85-47.96 13.08-21.19 13.08-49.06 0-47.29-33.23-75.37-33.23-28.07-78.62-28.07-43.15 0-73.27 23.46-30.11 23.46-44.11 53.92l36.76 15.23q9.62-21.84 27.5-38.61 17.89-16.77 51.58-16.77 38.92 0 56.85 21.34 17.92 21.35 17.92 46.97 0 20.77-11.23 37.11-11.23 16.35-29.23 32.89-34.77 32.07-45.54 54.38-10.77 22.31-10.77 54.54ZM480.13-120q-74.67 0-140.41-28.34-65.73-28.34-114.36-76.92-48.63-48.58-76.99-114.26Q120-405.19 120-479.87q0-74.67 28.34-140.41 28.34-65.73 76.92-114.36 48.58-48.63 114.26-76.99Q405.19-840 479.87-840q74.67 0 140.41 28.34 65.73 28.34 114.36 76.92 48.63 48.58 76.99 114.26Q840-554.81 840-480.13q0 74.67-28.34 140.41-28.34 65.73-76.92 114.36-48.58 48.63-114.26 76.99Q554.81-120 480.13-120Z"/>
  </symbol>
  <symbol id="icon-fill-moon" viewBox="0 -960 960 960">
    <path d="M484-120q-75.54 0-141.73-28.54-66.19-28.54-115.69-78.04-49.5-49.5-78.04-115.69Q120-408.46 120-484q0-116.77 67.23-210.58 67.23-93.81 177.39-130.8-4.16 93.61 28.69 180.03 32.84 86.43 99.23 152.81 66.38 66.39 152.81 99.23 86.42 32.85 180.03 28.69-36.76 110.16-130.69 177.39Q600.77-120 484-120Z"/>
  </symbol>
  <symbol id="icon-outlined-sun" viewBox="0 -960 960 960">
    <path d="M460-743.08v-135.38h40v135.38h-40Zm219.85 91.54-27.31-27.31 94.31-98.07 29.07 29.3-96.07 96.08ZM743.08-460v-40h135.38v40H743.08ZM460-81.54v-134.61h40v134.61h-40ZM281.69-652.77l-98.61-94.08 30.07-28.3 96.08 95.3-27.54 27.08Zm464.93 469.69-94.08-98.07 27.08-26.31 95.53 93.84-28.53 30.54ZM81.54-460v-40h135.38v40H81.54Zm130.84 276.92-27.53-30.07 94.3-94.31 14.39 13.92 15.15 14.16-96.31 96.3Zm126.08-155.38Q280-396.92 280-480q0-83.08 58.46-141.54Q396.92-680 480-680q83.08 0 141.54 58.46Q680-563.08 680-480q0 83.08-58.46 141.54Q563.08-280 480-280q-83.08 0-141.54-58.46ZM593-367q47-47 47-113t-47-113q-47-47-113-47t-113 47q-47 47-47 113t47 113q47 47 113 47t113-47ZM480-480Z"/>
  </symbol>
</svg>
