<svg xmlns="http://www.w3.org/2000/svg">
  <symbol id="icon-outlined-mail" viewBox="0 -960 960 960">
    <path d="M184.62-200q-27.62 0-46.12-18.5Q120-237 120-264.62v-430.76q0-27.62 18.5-46.12Q157-760 184.62-760h590.76q27.62 0 46.12 18.5Q840-723 840-695.38v430.76q0 27.62-18.5 46.12Q803-200 775.38-200H184.62ZM480-475.38 160-684.62v420q0 10.77 6.92 17.7 6.93 6.92 17.7 6.92h590.76q10.77 0 17.7-6.92 6.92-6.93 6.92-17.7v-420L480-475.38Zm0-44.62 307.69-200H172.31L480-520ZM160-684.62V-720v455.38q0 10.77 6.92 17.7 6.93 6.92 17.7 6.92H160v-444.62Z"/>
  </symbol>
  <symbol id="icon-outlined-user" viewBox="0 -960 960 960">
    <path d="M395.08-539.69Q360-574.77 360-624.62q0-49.84 35.08-84.92 35.07-35.08 84.92-35.08t84.92 35.08Q600-674.46 600-624.62q0 49.85-35.08 84.93-35.07 35.07-84.92 35.07t-84.92-35.07ZM200-215.38v-65.85q0-24.77 14.42-46.35 14.43-21.57 38.81-33.5 56.62-27.15 113.31-40.73 56.69-13.57 113.46-13.57 56.77 0 113.46 13.57 56.69 13.58 113.31 40.73 24.38 11.93 38.81 33.5Q760-306 760-281.23v65.85H200Zm40-40h480v-25.85q0-13.31-8.58-25-8.57-11.69-23.73-19.77-49.38-23.92-101.83-36.65-52.45-12.73-105.86-12.73t-105.86 12.73Q321.69-349.92 272.31-326q-15.16 8.08-23.73 19.77-8.58 11.69-8.58 25v25.85Zm296.5-312.74q23.5-23.5 23.5-56.5t-23.5-56.5q-23.5-23.5-56.5-23.5t-56.5 23.5q-23.5 23.5-23.5 56.5t23.5 56.5q23.5 23.5 56.5 23.5t56.5-23.5Zm-56.5-56.5Zm0 369.24Z"/>
  </symbol>
  <symbol id="icon-outlined-progress-activity" viewBox="0 -960 960 960">
    <path d="M325-111.5q-73-31.5-127.5-86t-86-127.5Q80-398 80-480.5t31.5-155q31.5-72.5 86-127t127.5-86Q398-880 480-880q17 0 28.5 11.5T520-840q0 17-11.5 28.5T480-800q-133 0-226.5 93.5T160-480q0 133 93.5 226.5T480-160q133 0 226.5-93.5T800-480q0-17 11.5-28.5T840-520q17 0 28.5 11.5T880-480q0 82-31.5 155t-86 127.5q-54.5 54.5-127 86T480.5-80Q398-80 325-111.5Z"/>
  </symbol>
  <symbol id="icon-outlined-search" viewBox="0 -960 960 960">
    <path d="M779.38-153.85 528.92-404.31q-30 25.54-69 39.54t-78.38 14q-95.92 0-162.58-66.65-66.65-66.66-66.65-162.58 0-95.92 66.65-162.58 66.66-66.65 162.58-66.65 95.92 0 162.58 66.65 66.65 66.66 66.65 162.58 0 41.69-14.77 80.69t-38.77 66.69l250.46 250.47-28.31 28.3ZM381.54-390.77q79.61 0 134.42-54.81 54.81-54.8 54.81-134.42 0-79.62-54.81-134.42-54.81-54.81-134.42-54.81-79.62 0-134.42 54.81-54.81 54.8-54.81 134.42 0 79.62 54.81 134.42 54.8 54.81 134.42 54.81Z"/>
  </symbol>
</svg>
